<svg width="53" height="53" viewBox="0 0 53 53" fill="none" xmlns="http://www.w3.org/2000/svg">
<circle cx="26.5" cy="26.5" r="26.5" fill="#DCA570"/>
<path d="M15.5901 39.9219C13.0276 39.9219 10.9078 39.3281 9.23075 38.1406C7.56408 36.9427 6.52242 35.3281 6.10575 33.2969L10.7464 32.5625C11.0797 33.5521 11.6578 34.3125 12.4807 34.8438C13.3037 35.3646 14.3297 35.625 15.5589 35.625C16.9443 35.625 18.0276 35.3438 18.8089 34.7812C19.6005 34.2188 19.9964 33.4427 19.9964 32.4531C19.9964 31.4427 19.637 30.7135 18.9182 30.2656C18.2099 29.8073 17.0432 29.5781 15.4182 29.5781H13.2464V26.0312H15.2307C18.137 26.0312 19.5901 25.1146 19.5901 23.2812C19.5901 22.3021 19.2412 21.5625 18.5432 21.0625C17.8453 20.5521 16.8297 20.2969 15.4964 20.2969C13.361 20.2969 11.9391 21.2031 11.2307 23.0156L6.59012 22.375C7.06929 20.375 8.09533 18.8229 9.66825 17.7188C11.2516 16.6042 13.236 16.0469 15.6214 16.0469C18.3818 16.0469 20.5693 16.6458 22.1839 17.8438C23.7985 19.0312 24.6057 20.6406 24.6057 22.6719C24.6057 23.9844 24.2568 25.0781 23.5589 25.9531C22.861 26.8281 21.8453 27.4479 20.512 27.8125C21.9495 28.0833 23.0589 28.6771 23.8401 29.5938C24.6318 30.5104 25.0276 31.6771 25.0276 33.0938C25.0276 35.1667 24.1578 36.8229 22.4182 38.0625C20.6891 39.3021 18.413 39.9219 15.5901 39.9219ZM27.662 29.5V18.5219H30.5776V20.1719C30.6776 19.9031 30.8245 19.6531 31.0182 19.4219C31.212 19.1906 31.4557 18.9844 31.7495 18.8031C32.0432 18.6156 32.4089 18.4844 32.8464 18.4094C33.2839 18.3281 33.7651 18.3187 34.2901 18.3812L33.9995 21.1469C32.8932 20.9406 32.0464 21.1031 31.4589 21.6344C30.8714 22.1594 30.5776 23.0531 30.5776 24.3156V29.5H27.662ZM40.1724 29.7531C39.4849 29.7531 38.8442 29.625 38.2505 29.3687C37.663 29.1125 37.1505 28.7469 36.713 28.2719C36.2755 27.7906 35.9286 27.1844 35.6724 26.4531C35.4224 25.7219 35.2974 24.9062 35.2974 24.0062C35.2974 23.1062 35.4224 22.2937 35.6724 21.5687C35.9224 20.8375 36.2661 20.2375 36.7036 19.7687C37.1411 19.3 37.6536 18.9406 38.2411 18.6906C38.8286 18.4344 39.4661 18.3062 40.1536 18.3062C40.9474 18.3062 41.6661 18.4937 42.3099 18.8687C42.9536 19.2375 43.4068 19.7406 43.6693 20.3781V14.95H46.5849V29.4812H43.6693V27.6906C43.4068 28.3156 42.9505 28.8156 42.3005 29.1906C41.6568 29.5656 40.9474 29.7531 40.1724 29.7531ZM40.9974 27.3156C41.8224 27.3156 42.488 27.0187 42.9943 26.425C43.5068 25.8312 43.763 25.025 43.763 24.0062C43.763 22.9937 43.5068 22.1937 42.9943 21.6062C42.4818 21.0187 41.8099 20.725 40.9786 20.725C40.1536 20.725 39.4849 21.0187 38.9724 21.6062C38.4661 22.1875 38.213 22.9875 38.213 24.0062C38.213 25.0312 38.4692 25.8406 38.9817 26.4344C39.4942 27.0219 40.1661 27.3156 40.9974 27.3156Z" fill="#1E1E36"/>
</svg>
