<svg width="53" height="53" viewBox="0 0 53 53" fill="none" xmlns="http://www.w3.org/2000/svg">
<circle cx="26.5" cy="26.5" r="26.5" fill="#FDE6A3"/>
<path d="M14.737 39.5V20.8438H11.2839V16.3281H19.7995V39.5H14.737ZM27.887 29.6875C26.5432 29.6875 25.4026 29.4156 24.4651 28.8719C23.5339 28.3281 22.9339 27.6031 22.6651 26.6969L25.3182 26.2562C25.5182 26.6875 25.8432 27.0219 26.2932 27.2594C26.7432 27.4969 27.2807 27.6156 27.9057 27.6156C28.5557 27.6156 29.0589 27.5094 29.4151 27.2969C29.7776 27.0844 29.9589 26.7875 29.9589 26.4062C29.9589 26.175 29.8776 25.9781 29.7151 25.8156C29.5589 25.6531 29.3464 25.525 29.0776 25.4312C28.8151 25.3312 28.5089 25.2469 28.1589 25.1781C27.8151 25.1031 27.4526 25.0281 27.0714 24.9531C26.6901 24.8781 26.3089 24.7937 25.9276 24.7C25.5464 24.6062 25.1839 24.4781 24.8401 24.3156C24.4964 24.1531 24.1901 23.9594 23.9214 23.7344C23.6589 23.5094 23.4495 23.2156 23.2932 22.8531C23.137 22.4906 23.062 22.075 23.0682 21.6062C23.087 20.625 23.5339 19.8344 24.4089 19.2344C25.2901 18.6281 26.4182 18.325 27.7932 18.325C28.9495 18.325 29.9776 18.5781 30.8776 19.0844C31.7839 19.5844 32.3682 20.2531 32.6307 21.0906L30.0245 21.55C29.862 21.1812 29.5839 20.8906 29.1901 20.6781C28.8026 20.4656 28.362 20.3594 27.8682 20.3594C27.262 20.3594 26.7901 20.4625 26.4526 20.6687C26.1151 20.8687 25.9464 21.15 25.9464 21.5125C25.9464 21.7437 26.0245 21.9406 26.1807 22.1031C26.3432 22.2594 26.5589 22.3844 26.8276 22.4781C27.0964 22.5656 27.4026 22.6406 27.7464 22.7031C28.0964 22.7656 28.462 22.8312 28.8432 22.9C29.2307 22.9625 29.6151 23.0375 29.9964 23.125C30.3839 23.2062 30.7495 23.325 31.0932 23.4812C31.4432 23.6312 31.7526 23.8156 32.0214 24.0344C32.2901 24.2531 32.5026 24.5437 32.6589 24.9062C32.8214 25.2625 32.9026 25.675 32.9026 26.1437C32.9026 27.2375 32.4495 28.1031 31.5432 28.7406C30.6432 29.3719 29.4245 29.6875 27.887 29.6875ZM40.2942 29.6688C38.763 29.6688 37.6442 29.3219 36.938 28.6281C36.2317 27.9281 35.8786 26.7594 35.8786 25.1219V20.725H34.3224V18.5219H35.8786V16.5437L38.813 15.925V18.5219H41.813V20.725H38.813V24.85C38.813 25.7812 38.9599 26.4344 39.2536 26.8094C39.5536 27.1844 40.0661 27.3719 40.7911 27.3719C40.8849 27.3719 41.1786 27.3375 41.6724 27.2687L42.0567 29.4812C41.5692 29.6063 40.9817 29.6688 40.2942 29.6688Z" fill="#1E1E36"/>
</svg>
