<svg width="53" height="53" viewBox="0 0 53 53" fill="none" xmlns="http://www.w3.org/2000/svg">
<circle cx="26.5" cy="26.5" r="26.5" fill="#8EBDFD"/>
<path d="M17.7183 39.5V35.0156H5.71825V30.9219L17.2495 16.3281H22.7808V30.8906H25.6245V35.0156H22.7808V39.5H17.7183ZM10.5933 30.8906H17.7183V22.0938L10.5933 30.8906ZM32.7526 29.6688C31.2214 29.6688 30.1026 29.3219 29.3964 28.6281C28.6901 27.9281 28.337 26.7594 28.337 25.1219V20.725H26.7808V18.5219H28.337V16.5437L31.2714 15.925V18.5219H34.2714V20.725H31.2714V24.85C31.2714 25.7812 31.4183 26.4344 31.712 26.8094C32.012 27.1844 32.5245 27.3719 33.2495 27.3719C33.3433 27.3719 33.637 27.3375 34.1308 27.2687L34.5151 29.4812C34.0276 29.6063 33.4401 29.6688 32.7526 29.6688ZM36.6192 29.5V14.95H39.5349V20.2844C39.7599 19.7031 40.163 19.2281 40.7442 18.8594C41.3317 18.4906 42.063 18.3062 42.938 18.3062C44.3505 18.3062 45.413 18.7125 46.1255 19.525C46.8443 20.3312 47.2036 21.6406 47.2036 23.4531V29.5H44.2786V23.725C44.2786 22.6875 44.088 21.9375 43.7068 21.475C43.3255 21.0125 42.7224 20.7812 41.8974 20.7812C41.0911 20.7812 40.4942 21.0375 40.1067 21.55C39.7255 22.0562 39.5349 22.8375 39.5349 23.8937V29.5H36.6192Z" fill="#1E1E36"/>
</svg>
