<svg width="53" height="53" viewBox="0 0 53 53" fill="none" xmlns="http://www.w3.org/2000/svg">
<circle cx="26.5" cy="26.5" r="26.5" fill="#C8C7C7"/>
<path d="M4.062 39.5V35.0469C6.08283 33.849 7.80158 32.8021 9.21825 31.9062C10.6453 31.0104 11.8433 30.2083 12.812 29.5C13.7912 28.7812 14.562 28.1719 15.1245 27.6719C15.6974 27.1719 16.1349 26.6823 16.437 26.2031C16.7391 25.724 16.9318 25.3125 17.0151 24.9688C17.1089 24.625 17.1558 24.2188 17.1558 23.75C17.1558 22.7396 16.7755 21.9427 16.0151 21.3594C15.2651 20.776 14.2703 20.4844 13.0308 20.4844C11.812 20.4844 10.8016 20.776 9.9995 21.3594C9.20783 21.9427 8.71304 22.7604 8.51513 23.8125L3.812 23.1094C4.16617 20.8698 5.14533 19.1406 6.7495 17.9219C8.35367 16.6927 10.4474 16.0781 13.0308 16.0781C15.9266 16.0781 18.1922 16.7083 19.8276 17.9688C21.463 19.2292 22.2808 20.9896 22.2808 23.25C22.2808 25.2708 21.4266 27.1458 19.7183 28.875C18.0099 30.6042 15.0776 32.6406 10.9214 34.9844H22.1089V39.5H4.062ZM24.8526 29.5V18.5219H27.7683V20.2844C28.0183 19.6719 28.4401 19.1906 29.0339 18.8406C29.6339 18.4844 30.3464 18.3062 31.1714 18.3062C32.6276 18.3062 33.7026 18.7312 34.3964 19.5812C35.0901 20.425 35.437 21.7156 35.437 23.4531V29.5H32.512V23.725C32.512 22.7187 32.3183 21.9781 31.9308 21.5031C31.5433 21.0219 30.9433 20.7812 30.1308 20.7812C29.3058 20.7812 28.7058 21.0406 28.3308 21.5594C27.9558 22.0719 27.7683 22.85 27.7683 23.8937V29.5H24.8526ZM42.763 29.7531C42.0755 29.7531 41.4349 29.625 40.8411 29.3687C40.2536 29.1125 39.7411 28.7469 39.3036 28.2719C38.8661 27.7906 38.5193 27.1844 38.263 26.4531C38.013 25.7219 37.888 24.9062 37.888 24.0062C37.888 23.1062 38.013 22.2937 38.263 21.5687C38.513 20.8375 38.8568 20.2375 39.2943 19.7687C39.7318 19.3 40.2443 18.9406 40.8318 18.6906C41.4193 18.4344 42.0568 18.3062 42.7443 18.3062C43.538 18.3062 44.2568 18.4937 44.9005 18.8687C45.5443 19.2375 45.9974 19.7406 46.2599 20.3781V14.95H49.1755V29.4812H46.2599V27.6906C45.9974 28.3156 45.5411 28.8156 44.8911 29.1906C44.2474 29.5656 43.538 29.7531 42.763 29.7531ZM43.588 27.3156C44.413 27.3156 45.0786 27.0187 45.5849 26.425C46.0974 25.8312 46.3536 25.025 46.3536 24.0062C46.3536 22.9937 46.0974 22.1937 45.5849 21.6062C45.0724 21.0187 44.4005 20.725 43.5693 20.725C42.7443 20.725 42.0755 21.0187 41.563 21.6062C41.0568 22.1875 40.8036 22.9875 40.8036 24.0062C40.8036 25.0312 41.0599 25.8406 41.5724 26.4344C42.0849 27.0219 42.7568 27.3156 43.588 27.3156Z" fill="#1E1E36"/>
</svg>
