<svg width="1381" height="653" viewBox="0 0 1381 653" fill="none" xmlns="http://www.w3.org/2000/svg">
<rect y="17" width="4" height="636" fill="#15FFA0"/>
<rect x="4" y="21" width="3.99995" height="1142" transform="rotate(-90 4 21)" fill="#15FFA0"/>
<path d="M1171.8 29V12.6758H1166.83V8.72461H1181.12V12.6758H1176.23V29H1171.8ZM1188.75 29.3691C1187.67 29.3691 1186.64 29.2005 1185.67 28.8633C1184.71 28.526 1183.83 28.0293 1183.04 27.373C1182.25 26.7168 1181.63 25.8418 1181.16 24.748C1180.7 23.6452 1180.46 22.3919 1180.46 20.9883C1180.46 19.8672 1180.62 18.8418 1180.92 17.9121C1181.23 16.9824 1181.64 16.1986 1182.16 15.5605C1182.69 14.9225 1183.31 14.3848 1184.02 13.9473C1184.73 13.5098 1185.48 13.1908 1186.28 12.9902C1187.07 12.7806 1187.89 12.6758 1188.75 12.6758C1189.6 12.6758 1190.42 12.7806 1191.21 12.9902C1192 13.1908 1192.75 13.5098 1193.45 13.9473C1194.16 14.3848 1194.78 14.9225 1195.3 15.5605C1195.83 16.1986 1196.24 16.9824 1196.54 17.9121C1196.85 18.8418 1197.01 19.8672 1197.01 20.9883C1197.01 22.1185 1196.85 23.153 1196.54 24.0918C1196.24 25.0306 1195.83 25.8236 1195.31 26.4707C1194.79 27.1087 1194.18 27.651 1193.47 28.0977C1192.76 28.5352 1192.02 28.8542 1191.22 29.0547C1190.43 29.2643 1189.61 29.3691 1188.75 29.3691ZM1188.75 25.8145C1189.95 25.8145 1190.92 25.3815 1191.66 24.5156C1192.41 23.6497 1192.78 22.474 1192.78 20.9883C1192.78 19.5117 1192.41 18.3451 1191.66 17.4883C1190.91 16.6315 1189.93 16.2031 1188.72 16.2031C1187.52 16.2031 1186.54 16.6315 1185.8 17.4883C1185.06 18.3359 1184.69 19.5026 1184.69 20.9883C1184.69 22.4831 1185.06 23.6634 1185.81 24.5293C1186.56 25.3861 1187.54 25.8145 1188.75 25.8145ZM1200.03 34.1816V12.9902H1204.28V15.5879C1204.65 14.7311 1205.28 14.0339 1206.2 13.4961C1207.12 12.9492 1208.19 12.6758 1209.41 12.6758C1210.35 12.6758 1211.23 12.8444 1212.06 13.1816C1212.9 13.5098 1213.65 13.9974 1214.32 14.6445C1214.98 15.2917 1215.51 16.1576 1215.9 17.2422C1216.29 18.3268 1216.49 19.5664 1216.49 20.9609C1216.49 22.082 1216.36 23.1074 1216.09 24.0371C1215.84 24.9577 1215.49 25.737 1215.04 26.375C1214.59 27.013 1214.07 27.5508 1213.46 27.9883C1212.85 28.4258 1212.21 28.7448 1211.53 28.9453C1210.84 29.1458 1210.13 29.2461 1209.38 29.2461C1208.17 29.2461 1207.11 28.9681 1206.2 28.4121C1205.28 27.8561 1204.65 27.1452 1204.28 26.2793V34.1816H1200.03ZM1208.18 25.7461C1209.4 25.7461 1210.38 25.3223 1211.12 24.4746C1211.86 23.6178 1212.24 22.4466 1212.24 20.9609C1212.24 19.4753 1211.87 18.304 1211.13 17.4473C1210.39 16.5814 1209.42 16.1484 1208.21 16.1484C1206.99 16.1484 1206.01 16.5814 1205.27 17.4473C1204.52 18.304 1204.14 19.4753 1204.14 20.9609C1204.14 22.4466 1204.51 23.6178 1205.25 24.4746C1206 25.3223 1206.97 25.7461 1208.18 25.7461ZM1236.53 29.3418C1235.52 29.3418 1234.56 29.2188 1233.63 28.9727C1232.71 28.7266 1231.83 28.3346 1231 27.7969C1230.17 27.2591 1229.45 26.5938 1228.84 25.8008C1228.23 24.9987 1227.74 24.0098 1227.37 22.834C1227.02 21.6582 1226.84 20.3548 1226.84 18.9238C1226.84 17.5293 1227.02 16.2487 1227.37 15.082C1227.74 13.9154 1228.23 12.931 1228.84 12.1289C1229.45 11.3268 1230.17 10.6478 1231 10.0918C1231.83 9.53581 1232.71 9.13021 1233.63 8.875C1234.56 8.61068 1235.53 8.47852 1236.53 8.47852C1237.32 8.47852 1238.08 8.55599 1238.82 8.71094C1239.56 8.86589 1240.3 9.12565 1241.03 9.49023C1241.77 9.85482 1242.43 10.3105 1243.03 10.8574C1243.63 11.3952 1244.16 12.0833 1244.63 12.9219C1245.09 13.7513 1245.44 14.6855 1245.67 15.7246L1241.32 16.4902C1240.98 15.1868 1240.38 14.2025 1239.53 13.5371C1238.67 12.8717 1237.66 12.5391 1236.51 12.5391C1234.97 12.5391 1233.74 13.1133 1232.8 14.2617C1231.87 15.401 1231.41 16.9551 1231.41 18.9238C1231.41 20.8926 1231.87 22.4466 1232.8 23.5859C1233.73 24.7161 1234.97 25.2812 1236.51 25.2812C1237.68 25.2812 1238.7 24.9395 1239.55 24.2559C1240.42 23.5723 1241.01 22.5605 1241.32 21.2207L1245.69 21.9727C1245.47 23.0299 1245.13 23.9824 1244.67 24.8301C1244.2 25.6777 1243.67 26.3796 1243.07 26.9355C1242.48 27.4824 1241.81 27.9427 1241.07 28.3164C1240.33 28.681 1239.59 28.9408 1238.84 29.0957C1238.1 29.2598 1237.33 29.3418 1236.53 29.3418ZM1254.5 29.3418C1252.37 29.3418 1250.81 28.7266 1249.79 27.4961C1248.79 26.2656 1248.29 24.3789 1248.29 21.8359V12.9902H1252.54V21.4395C1252.54 22.916 1252.81 23.9961 1253.35 24.6797C1253.9 25.3542 1254.79 25.6914 1256.02 25.6914C1257.22 25.6914 1258.09 25.3177 1258.63 24.5703C1259.16 23.8229 1259.43 22.6882 1259.43 21.166V12.9902H1263.69V29H1259.43V26.457C1259.08 27.3411 1258.46 28.043 1257.59 28.5625C1256.71 29.082 1255.68 29.3418 1254.5 29.3418ZM1274.77 29.2461C1272.54 29.2461 1270.91 28.7402 1269.88 27.7285C1268.85 26.7077 1268.33 25.0033 1268.33 22.6152V16.2031H1266.06V12.9902H1268.33V10.1055L1272.61 9.20312V12.9902H1276.99V16.2031H1272.61V22.2188C1272.61 23.5768 1272.83 24.5293 1273.26 25.0762C1273.69 25.623 1274.44 25.8965 1275.5 25.8965C1275.63 25.8965 1276.06 25.8464 1276.78 25.7461L1277.34 28.9727C1276.63 29.1549 1275.78 29.2461 1274.77 29.2461ZM1295.91 29.2734C1293.02 29.2734 1290.87 28.4805 1289.44 26.8945C1288.02 25.3086 1287.31 22.875 1287.31 19.5938V8.72461H1291.74V19.5664C1291.74 21.5898 1292.07 23.0527 1292.72 23.9551C1293.39 24.8574 1294.45 25.3086 1295.91 25.3086C1297.36 25.3086 1298.41 24.8574 1299.07 23.9551C1299.72 23.0527 1300.05 21.599 1300.05 19.5938V8.72461H1304.51V19.6211C1304.51 22.875 1303.79 25.2995 1302.36 26.8945C1300.93 28.4805 1298.78 29.2734 1295.91 29.2734ZM1314.61 29.2734C1312.65 29.2734 1310.99 28.877 1309.62 28.084C1308.26 27.291 1307.39 26.2337 1307 24.9121L1310.87 24.2695C1311.16 24.8984 1311.63 25.3861 1312.29 25.7324C1312.95 26.0788 1313.73 26.252 1314.64 26.252C1315.59 26.252 1316.32 26.097 1316.84 25.7871C1317.37 25.4772 1317.63 25.0443 1317.63 24.4883C1317.63 24.151 1317.52 23.8639 1317.28 23.627C1317.05 23.39 1316.74 23.2031 1316.35 23.0664C1315.97 22.9206 1315.52 22.7975 1315.01 22.6973C1314.51 22.5879 1313.98 22.4785 1313.42 22.3691C1312.87 22.2598 1312.31 22.1367 1311.76 22C1311.2 21.8633 1310.67 21.6764 1310.17 21.4395C1309.67 21.2025 1309.22 20.9199 1308.83 20.5918C1308.45 20.2637 1308.14 19.8353 1307.91 19.3066C1307.69 18.778 1307.58 18.1719 1307.59 17.4883C1307.61 16.0573 1308.26 14.9043 1309.54 14.0293C1310.83 13.1452 1312.47 12.7031 1314.48 12.7031C1316.16 12.7031 1317.66 13.0723 1318.97 13.8105C1320.3 14.5397 1321.15 15.515 1321.53 16.7363L1317.73 17.4062C1317.49 16.8685 1317.09 16.4447 1316.51 16.1348C1315.95 15.8249 1315.31 15.6699 1314.59 15.6699C1313.7 15.6699 1313.01 15.8203 1312.52 16.1211C1312.03 16.4128 1311.78 16.8229 1311.78 17.3516C1311.78 17.6888 1311.9 17.9759 1312.12 18.2129C1312.36 18.4408 1312.68 18.623 1313.07 18.7598C1313.46 18.8874 1313.91 18.9967 1314.41 19.0879C1314.92 19.179 1315.45 19.2747 1316.01 19.375C1316.57 19.4661 1317.13 19.5755 1317.69 19.7031C1318.25 19.8216 1318.79 19.9948 1319.29 20.2227C1319.8 20.4414 1320.25 20.7103 1320.64 21.0293C1321.03 21.3483 1321.34 21.7721 1321.57 22.3008C1321.81 22.8203 1321.93 23.4219 1321.93 24.1055C1321.93 25.7005 1321.27 26.9629 1319.95 27.8926C1318.63 28.8132 1316.86 29.2734 1314.61 29.2734ZM1331.02 29.3691C1330.02 29.3691 1329.08 29.1823 1328.22 28.8086C1327.36 28.4349 1326.61 27.9017 1325.97 27.209C1325.34 26.5072 1324.83 25.623 1324.46 24.5566C1324.09 23.4902 1323.91 22.3008 1323.91 20.9883C1323.91 19.6758 1324.09 18.4909 1324.46 17.4336C1324.82 16.3672 1325.32 15.4922 1325.96 14.8086C1326.6 14.125 1327.35 13.6009 1328.2 13.2363C1329.06 12.8626 1329.99 12.6758 1330.99 12.6758C1332.14 12.6758 1333.18 12.9447 1334.11 13.4824C1335.05 14.0202 1335.72 14.7585 1336.12 15.6973V12.9902H1340.37V28.9727H1336.12V26.3613C1335.74 27.2728 1335.07 28.002 1334.12 28.5488C1333.18 29.0957 1332.15 29.3691 1331.02 29.3691ZM1332.22 25.8145C1333.42 25.8145 1334.39 25.3815 1335.13 24.5156C1335.88 23.6497 1336.26 22.474 1336.26 20.9883C1336.26 19.5117 1335.88 18.3451 1335.13 17.4883C1334.39 16.6315 1333.41 16.2031 1332.2 16.2031C1330.99 16.2031 1330.02 16.6315 1329.27 17.4883C1328.53 18.3359 1328.16 19.5026 1328.16 20.9883C1328.16 22.4831 1328.54 23.6634 1329.28 24.5293C1330.03 25.3861 1331.01 25.8145 1332.22 25.8145ZM1351.69 34.7148C1349.67 34.7148 1347.98 34.3092 1346.62 33.498C1345.27 32.696 1344.34 31.5521 1343.83 30.0664L1347.89 29.1367C1348.17 29.8659 1348.65 30.4447 1349.33 30.873C1350.01 31.3014 1350.81 31.5156 1351.72 31.5156C1353.04 31.5156 1354.03 31.151 1354.7 30.4219C1355.36 29.6927 1355.7 28.5352 1355.7 26.9492V25.4453C1355.32 26.3568 1354.68 27.0495 1353.76 27.5234C1352.84 27.9883 1351.78 28.2207 1350.6 28.2207C1349.59 28.2207 1348.65 28.0521 1347.79 27.7148C1346.94 27.3685 1346.19 26.8763 1345.54 26.2383C1344.9 25.6003 1344.4 24.7845 1344.04 23.791C1343.67 22.7975 1343.49 21.6855 1343.49 20.4551C1343.49 19.2337 1343.67 18.1309 1344.02 17.1465C1344.39 16.153 1344.89 15.3372 1345.53 14.6992C1346.16 14.0612 1346.91 13.5736 1347.77 13.2363C1348.62 12.8991 1349.56 12.7305 1350.57 12.7305C1351.76 12.7305 1352.82 12.9674 1353.74 13.4414C1354.67 13.9154 1355.32 14.6217 1355.7 15.5605V12.9902H1359.95V26.1699C1359.95 29.1413 1359.27 31.306 1357.91 32.6641C1356.56 34.0312 1354.49 34.7148 1351.69 34.7148ZM1348.83 23.873C1349.58 24.6934 1350.56 25.1035 1351.77 25.1035C1352.99 25.1035 1353.96 24.6934 1354.7 23.873C1355.44 23.0436 1355.81 21.9043 1355.81 20.4551C1355.81 19.0332 1355.43 17.9076 1354.69 17.0781C1353.95 16.2487 1352.97 15.834 1351.75 15.834C1350.55 15.834 1349.58 16.2487 1348.83 17.0781C1348.09 17.9076 1347.71 19.0332 1347.71 20.4551C1347.71 21.9134 1348.09 23.0527 1348.83 23.873ZM1371.41 29.3145C1368.89 29.3145 1366.87 28.5579 1365.35 27.0449C1363.83 25.5228 1363.07 23.5039 1363.07 20.9883C1363.07 18.5273 1363.83 16.5267 1365.35 14.9863C1366.87 13.446 1368.85 12.6758 1371.27 12.6758C1373.91 12.6758 1375.95 13.5234 1377.39 15.2188C1378.83 16.9141 1379.43 19.1654 1379.17 21.9727H1367.32C1367.35 23.2669 1367.75 24.2786 1368.49 25.0078C1369.24 25.7279 1370.25 26.0879 1371.53 26.0879C1373.34 26.0879 1374.55 25.4271 1375.14 24.1055L1379.02 24.5703C1378.45 26.1289 1377.52 27.3092 1376.23 28.1113C1374.95 28.9134 1373.34 29.3145 1371.41 29.3145ZM1367.41 19.1699H1375.28C1375.19 18.0944 1374.81 17.2422 1374.11 16.6133C1373.42 15.9844 1372.51 15.6699 1371.38 15.6699C1370.27 15.6699 1369.36 15.9753 1368.64 16.5859C1367.94 17.1875 1367.53 18.0488 1367.41 19.1699Z" fill="white"/>
</svg>
